<?xml version="1.0" standalone="no"?>
<!DOCTYPE svg PUBLIC "-//W3C//DTD SVG 20010904//EN"
 "http://www.w3.org/TR/2001/REC-SVG-20010904/DTD/svg10.dtd">
<svg version="1.0" xmlns="http://www.w3.org/2000/svg"
 width="650.000000pt" height="434.000000pt" viewBox="0 0 650.000000 434.000000"
 preserveAspectRatio="xMidYMid meet">
<metadata>
Created by potrace 1.16, written by Peter Selinger 2001-2019
</metadata>
<g transform="translate(0.000000,434.000000) scale(0.100000,-0.100000)"
fill="#000000" stroke="none">
<path d="M2490 4286 c-42 -25 -89 -41 -200 -65 -80 -18 -181 -43 -225 -56 -44
-13 -100 -26 -125 -30 -102 -15 -366 -110 -516 -186 -164 -83 -191 -100 -273
-171 -31 -27 -68 -50 -85 -53 -38 -6 -155 -16 -176 -15 -206 11 -269 10 -344
-4 -44 -9 -103 -19 -130 -21 -27 -3 -65 -9 -85 -15 -20 -5 -94 -21 -166 -35
-72 -14 -138 -28 -147 -31 -17 -5 -18 -100 -18 -1805 l0 -1799 1073 1 1072 1
-85 19 c-47 11 -124 30 -172 44 -48 14 -93 25 -100 25 -23 0 -68 24 -68 37 0
6 -8 9 -19 6 -19 -5 -107 22 -125 39 -6 4 -20 8 -32 8 -13 0 -26 4 -29 10 -3
5 -11 10 -16 10 -6 0 -7 -5 -4 -10 3 -6 1 -10 -5 -10 -7 0 -9 -12 -4 -34 5
-29 1 -40 -20 -63 -14 -15 -26 -33 -26 -40 0 -11 -37 -29 -45 -21 -5 5 15 85
31 128 26 68 23 83 -22 105 -22 11 -65 36 -95 55 -103 65 -122 72 -133 45 -3
-8 -12 -15 -21 -15 -16 0 -20 12 -8 24 13 13 10 54 -3 49 -7 -2 -15 0 -18 5
-3 6 1 13 10 16 10 4 13 13 9 26 -4 12 -1 27 5 35 10 12 10 15 -1 15 -19 0
-40 -36 -33 -55 10 -25 -10 -17 -57 22 -24 21 -52 45 -61 53 -24 20 -23 33 2
20 21 -11 25 -4 11 18 -7 11 -12 11 -28 2 -38 -24 -99 36 -87 84 3 14 12 27
20 30 24 9 16 34 -13 38 -32 3 -37 24 -14 52 15 18 15 18 -9 11 -14 -4 -31
-10 -38 -12 -13 -6 -18 42 -4 50 4 3 24 -1 46 -8 38 -13 66 -11 66 6 0 4 -6
12 -13 16 -17 10 -28 51 -16 59 5 3 21 -9 35 -25 14 -17 30 -29 35 -25 12 7
12 -9 -1 -22 -5 -5 -6 -15 0 -24 7 -12 15 -13 40 -3 16 6 30 7 30 2 0 -5 -4
-9 -10 -9 -23 0 -8 -18 20 -24 34 -6 39 -22 10 -31 -23 -7 -27 -45 -5 -45 8 0
15 3 15 8 0 7 48 32 63 32 5 0 7 -7 3 -15 -3 -10 1 -15 13 -15 24 0 33 -11 21
-25 -7 -9 -6 -16 4 -24 8 -7 12 -19 9 -27 -3 -8 -1 -14 5 -14 5 0 12 11 14 25
3 15 1 22 -5 18 -6 -3 -7 -1 -3 6 10 15 66 10 66 -6 0 -6 -10 -19 -21 -27
l-21 -14 20 -13 c17 -11 19 -16 9 -28 -10 -12 -9 -13 8 -7 11 5 27 10 36 13
19 5 59 -25 59 -44 0 -7 7 -13 15 -13 8 0 15 -4 15 -10 0 -5 6 -7 14 -4 8 3
23 1 33 -5 17 -10 17 -10 1 -11 -10 0 -18 -4 -18 -10 0 -5 6 -9 12 -7 7 1 14
-8 16 -20 3 -19 10 -23 43 -23 21 0 39 4 39 9 0 5 5 22 11 38 l11 28 17 -21
c18 -23 69 -45 57 -25 -4 6 0 18 9 27 15 15 17 15 29 -2 9 -12 11 -27 6 -45
-5 -15 -6 -30 -2 -33 3 -3 0 -6 -6 -6 -6 0 -9 -6 -6 -14 4 -10 -5 -16 -26 -21
-25 -5 -30 -11 -25 -26 4 -11 1 -27 -6 -35 -14 -17 -6 -29 16 -21 8 4 15 17
15 31 0 26 12 34 51 32 19 -1 25 2 21 13 -3 9 0 12 9 9 17 -6 21 -50 5 -60 -6
-4 4 -8 22 -8 17 0 32 -5 32 -11 0 -6 9 -8 21 -4 15 5 19 4 15 -4 -11 -18 25
-26 38 -9 6 8 18 17 26 21 10 3 10 6 2 6 -7 1 -17 12 -22 26 -8 22 -14 24 -43
20 -28 -5 -35 -2 -44 18 -9 20 -8 30 8 53 13 20 19 24 19 12 0 -12 14 -19 50
-27 28 -6 58 -11 66 -11 24 0 11 -24 -17 -30 -16 -4 -20 -8 -11 -14 6 -4 12
-14 12 -23 0 -9 7 -25 16 -35 14 -14 14 -20 4 -33 -7 -8 -16 -13 -20 -10 -9 6
-35 -23 -27 -31 3 -3 13 -1 24 4 10 6 33 16 51 22 35 13 43 30 15 30 -14 1
-12 4 7 14 30 17 46 10 28 -12 -10 -12 -10 -14 0 -8 17 10 15 -4 -5 -26 -9
-10 -11 -18 -6 -18 17 0 24 -31 11 -47 -9 -11 -9 -16 2 -23 21 -13 33 -1 27
27 -4 20 -1 24 13 20 15 -4 17 2 13 41 -2 24 -6 49 -10 55 -12 19 49 -4 67
-26 12 -14 29 -21 54 -21 30 0 36 -4 36 -21 0 -12 6 -27 13 -34 10 -10 6 -12
-18 -9 -27 3 -30 0 -33 -29 -3 -29 0 -33 22 -33 14 0 28 -4 31 -10 9 -15 25
-12 25 5 0 8 7 15 15 15 8 0 15 -5 15 -11 0 -16 81 -7 103 11 9 8 17 21 17 29
0 11 -5 10 -21 -5 -20 -18 -20 -18 -17 21 2 32 7 41 24 43 12 2 32 14 45 28
12 13 26 24 31 24 16 0 -23 -48 -43 -53 -13 -4 -17 -11 -13 -24 13 -40 27 -62
37 -56 6 3 7 1 3 -5 -4 -7 -4 -17 0 -24 12 -19 23 22 17 65 -5 36 -5 37 24 37
27 0 30 -3 26 -25 -3 -15 3 -34 15 -50 24 -30 19 -55 -10 -55 -11 0 -16 -4
-12 -11 4 -7 21 -9 44 -5 26 4 41 2 49 -8 15 -18 49 -27 57 -15 3 5 12 2 20
-6 9 -8 21 -12 27 -8 8 5 6 9 -6 11 -9 2 -15 7 -12 12 3 5 1 11 -4 14 -5 3 -4
24 2 49 7 30 17 48 37 59 26 15 27 15 26 -6 -1 -11 -7 -20 -13 -19 -12 3 16
-59 30 -65 16 -8 6 -32 -14 -32 -12 0 -19 -5 -16 -12 2 -8 21 -13 43 -13 21 0
48 -5 60 -12 28 -16 64 -6 64 19 0 18 1 18 16 4 22 -22 31 -20 38 9 7 29 18
32 36 10 10 -12 9 -15 -8 -15 -12 0 -22 -8 -25 -21 -5 -18 -2 -20 21 -16 15 3
36 7 47 9 22 3 33 21 34 56 1 13 -3 21 -9 17 -6 -4 -9 -14 -8 -22 2 -9 -2 -18
-9 -20 -14 -5 -16 84 -2 93 12 7 59 -41 59 -60 0 -8 5 -18 10 -21 17 -10 11
-23 -12 -27 -12 -2 -23 -9 -26 -16 -3 -10 10 -13 57 -10 49 2 60 6 56 18 -4
12 -3 12 7 -1 11 -13 38 -16 163 -16 87 0 153 4 156 9 4 7 14 6 27 -1 27 -15
75 -14 90 1 9 9 15 9 24 0 17 -17 77 -15 84 3 7 18 34 20 34 2 0 -9 16 -14 44
-16 40 -2 44 0 39 19 -4 16 -1 20 17 20 16 0 20 4 16 16 -3 9 -6 25 -7 37 0
21 -1 21 -10 -2 -7 -19 -12 -22 -21 -13 -9 9 -8 19 5 41 9 16 17 36 17 44 0
16 50 30 74 21 10 -4 22 6 36 28 17 28 20 30 20 11 0 -12 -6 -24 -12 -26 -10
-4 -9 -8 2 -16 10 -7 11 -11 3 -11 -7 0 -13 -11 -13 -25 0 -21 5 -25 29 -25
17 0 31 -6 35 -16 9 -23 8 -24 -15 -24 -21 0 -21 -3 -9 -77 0 -2 15 -2 33 0
20 2 32 8 33 17 1 28 15 60 27 60 7 0 18 -9 25 -20 17 -28 50 -25 64 5 6 14
15 25 20 25 13 0 9 13 -12 40 l-21 25 6 -30 6 -30 -16 28 c-14 24 -14 29 -2
42 17 16 56 10 75 -13 16 -21 15 -32 -3 -32 -19 0 -20 -26 -1 -33 8 -3 12 -14
10 -24 -3 -10 4 -28 16 -41 20 -21 28 -22 185 -22 95 0 165 4 165 9 0 21 32
41 56 35 14 -4 24 -2 24 5 0 6 -12 12 -27 12 -18 1 -22 3 -10 6 10 3 31 0 47
-6 18 -6 30 -6 30 0 0 5 11 9 25 9 31 0 33 20 3 21 -22 0 -22 1 -3 8 13 5 25
3 34 -7 10 -10 16 -11 19 -3 2 6 10 11 18 11 8 0 17 7 21 16 3 8 12 13 19 10
8 -3 14 0 14 8 0 8 -10 11 -30 8 -16 -2 -28 -8 -25 -12 3 -5 0 -12 -6 -16 -6
-3 -14 -1 -18 5 -5 8 -25 6 -70 -9 -67 -21 -131 -26 -131 -11 0 5 6 12 13 14
7 4 8 6 1 6 -6 1 -17 -6 -24 -14 -10 -12 -10 -15 1 -15 8 0 10 -3 3 -10 -5 -5
-32 -11 -61 -14 -28 -2 -61 -9 -72 -15 -27 -15 -64 -14 -59 1 3 7 15 15 29 19
21 6 21 7 -8 8 -39 1 -44 23 -14 55 16 18 17 23 5 34 -12 11 -14 10 -15 -5 0
-11 -3 -13 -6 -5 -7 17 -33 15 -33 -4 0 -8 -4 -13 -9 -9 -5 3 -12 1 -15 -4 -3
-4 -17 -8 -31 -8 -22 0 -24 2 -13 15 11 13 10 15 -4 9 -12 -4 -18 -2 -18 8 0
9 -7 12 -17 9 -10 -3 -1 5 21 16 29 17 41 19 46 10 9 -15 60 -5 60 10 0 10
-32 15 -77 12 -28 -1 -30 18 -3 25 11 3 20 11 20 17 0 21 47 58 67 54 11 -2
27 3 36 10 14 12 19 11 38 -7 22 -21 22 -21 3 -36 -16 -12 -16 -14 -3 -15 9 0
24 11 33 25 9 14 13 25 9 25 -5 0 -2 4 6 9 12 8 12 12 2 24 -8 10 -9 17 -1 22
5 3 10 4 10 0 0 -3 14 2 31 11 19 9 27 19 21 23 -15 9 3 35 20 28 8 -2 25 4
39 14 l24 19 -34 29 c-43 38 -74 45 -110 27 -23 -12 -33 -13 -55 -3 -14 7 -26
18 -26 25 0 14 -26 16 -34 3 -12 -18 8 -44 48 -61 37 -17 39 -19 14 -19 -15
-1 -29 3 -33 8 -6 11 -63 41 -77 41 -5 0 -15 -6 -23 -13 -10 -11 -10 -19 0
-44 7 -17 18 -34 24 -37 6 -4 11 -28 10 -54 -1 -46 -1 -47 -13 -19 -7 16 -19
33 -27 37 -8 5 -14 15 -14 22 -1 14 -18 55 -41 100 -20 38 -17 42 16 18 l30
-21 9 23 c7 19 7 92 0 108 -1 3 -3 68 -4 145 -1 77 -5 204 -9 282 -7 121 -6
145 7 158 19 19 25 19 43 0 9 -8 26 -15 38 -15 37 0 101 -37 114 -65 16 -34
15 -45 -3 -45 -9 0 -15 9 -15 25 0 14 -5 25 -12 25 -6 0 -20 7 -30 17 -10 9
-21 13 -26 9 -4 -4 3 -16 16 -27 13 -10 21 -23 18 -28 -3 -5 8 -18 25 -29 20
-13 27 -22 20 -27 -9 -5 -9 -10 0 -21 12 -15 37 -18 65 -7 16 6 16 7 -2 14
-15 5 -9 9 24 14 23 4 42 11 42 16 0 5 8 9 19 9 20 0 48 -27 38 -37 -10 -9 12
-43 28 -43 7 0 15 5 17 11 2 6 25 12 51 13 44 2 47 0 47 -24 0 -14 -5 -31 -12
-38 -9 -9 -7 -12 9 -12 12 0 23 6 26 13 3 9 9 7 24 -5 24 -22 33 -23 33 -3 0
21 12 19 33 -5 9 -11 12 -20 7 -20 -6 0 -10 -7 -10 -15 0 -8 14 -17 38 -21 39
-7 62 -20 62 -36 0 -14 -63 1 -76 18 -12 15 -34 19 -34 6 0 -5 -10 -14 -22
-20 -13 -6 -18 -11 -11 -11 6 -1 9 -9 6 -19 -3 -14 4 -22 26 -32 35 -14 39
-27 14 -46 -16 -11 -14 -13 17 -12 19 0 46 -3 60 -7 25 -8 25 -8 6 13 -24 28
-14 39 20 23 15 -6 27 -10 28 -9 31 57 31 57 -1 95 l-30 38 80 -2 c43 -1 81
-4 84 -6 2 -3 -9 -11 -26 -18 -24 -11 -28 -17 -20 -31 10 -19 39 -25 39 -7 0
5 5 7 11 4 7 -5 4 -15 -9 -29 -10 -11 -22 -29 -25 -39 -5 -13 -13 -16 -27 -12
-15 5 -20 2 -20 -10 0 -11 -5 -15 -15 -11 -18 6 -20 -5 -3 -22 15 -15 -7 -42
-36 -42 -34 0 -66 -12 -60 -21 3 -5 14 -9 25 -9 11 0 19 -7 19 -16 0 -14 8
-16 53 -10 28 4 56 11 61 17 19 17 95 10 113 -11 11 -12 21 -16 28 -10 6 5 30
10 54 12 47 3 66 22 31 31 -16 4 -18 9 -11 29 7 18 14 22 39 20 36 -4 72 13
72 33 0 19 15 19 34 0 21 -22 39 -19 31 5 -6 20 9 28 19 11 7 -11 66 16 66 30
0 5 -7 12 -15 15 -8 4 -15 11 -15 18 0 24 188 8 245 -22 l30 -15 -25 -9 c-13
-5 -29 -7 -37 -4 -9 4 -11 -3 -7 -24 6 -28 6 -28 -34 -24 l-40 3 11 -32 c20
-54 42 -62 52 -17 7 31 23 38 42 19 6 -6 16 -8 22 -5 18 11 13 33 -9 39 -20 5
-28 27 -10 27 6 0 10 -5 10 -11 0 -5 5 -7 11 -3 6 3 15 0 20 -7 6 -11 13 -11
26 -3 22 14 31 39 10 31 -10 -4 -17 2 -21 16 -9 34 -7 38 12 35 9 -1 28 9 42
23 14 14 35 31 45 37 17 10 18 13 5 22 -8 5 -10 10 -5 10 15 0 31 -13 36 -29
3 -8 18 3 43 33 38 46 39 61 3 28 -19 -16 -19 -16 -12 8 3 14 16 38 27 54 12
16 21 36 22 45 2 26 22 54 34 47 5 -3 8 -15 5 -26 -10 -37 12 -20 38 29 16 30
21 47 12 44 -7 -3 -13 1 -13 7 0 9 -6 8 -18 -3 -24 -22 -32 -21 -32 4 0 29 18
59 36 59 8 0 19 11 23 24 5 13 17 26 27 30 14 5 16 1 11 -29 -6 -38 10 -49 17
-12 42 201 49 325 21 417 -9 30 -20 70 -25 88 -24 80 -28 106 -20 123 11 20 4
29 -26 29 -13 0 -26 5 -29 10 -11 18 -23 1 -30 -40 -7 -40 -25 -65 -25 -35 0
28 -49 -39 -56 -77 -4 -18 -11 -39 -17 -46 -6 -7 -10 -35 -9 -63 1 -38 -3 -49
-15 -49 -17 0 -16 19 11 170 8 47 25 139 36 205 12 66 25 124 29 130 13 17 38
107 45 160 3 28 1 95 -5 150 -5 55 -10 106 -10 113 2 27 1 39 -5 95 -10 85
-22 78 -21 -13 0 -92 -9 -114 -18 -43 -3 26 -10 67 -16 91 -5 24 -7 59 -3 79
5 26 4 34 -5 29 -16 -10 -14 6 4 31 10 14 12 24 5 28 -6 3 -9 40 -8 83 l2 77
5 -69 c4 -46 11 -71 20 -74 11 -4 12 5 6 44 -4 27 -7 75 -6 106 2 94 -27 265
-61 362 -33 93 -128 287 -173 354 -76 111 -228 228 -409 312 -198 92 -249 109
-461 151 -60 12 -126 28 -145 35 -60 24 -280 65 -395 74 -60 5 -184 17 -275
27 -137 15 -244 17 -635 16 -321 -1 -478 -4 -495 -12 -14 -6 -47 -24 -75 -41
-27 -16 -66 -37 -85 -46 -19 -10 -45 -26 -57 -37 -25 -22 -43 -18 -20 4 7 8
12 20 9 27 -2 6 5 12 15 13 10 0 32 9 48 20 17 10 41 23 53 29 13 6 34 17 45
26 20 14 12 15 -108 13 -71 -2 -139 -6 -150 -9 -12 -4 -31 0 -50 11 -19 13
-49 19 -85 19 -46 0 -66 -6 -110 -34z m671 -269 c13 -7 36 -21 51 -31 15 -10
31 -15 37 -12 5 3 12 -1 15 -9 3 -9 21 -25 41 -36 19 -12 35 -25 35 -29 0 -14
63 -80 77 -80 7 0 13 -4 13 -10 0 -21 -22 -8 -62 35 -48 52 -69 56 -88 18 -8
-16 -20 -35 -26 -43 -7 -8 -14 -26 -16 -40 -3 -23 0 -25 32 -22 28 3 32 1 23
-9 -7 -7 -25 -14 -40 -15 -15 -2 -43 -6 -60 -10 -26 -5 -33 -3 -33 10 0 9 -6
16 -12 16 -8 0 -6 5 4 11 17 9 38 66 38 101 0 32 -72 96 -119 107 -25 5 -48 8
-52 5 -4 -2 -10 0 -13 5 -8 13 21 34 39 28 11 -5 66 9 91 22 1 1 12 -5 25 -12z
m1290 -122 c27 -40 30 -75 7 -102 -14 -17 -4 -27 18 -19 11 4 14 13 10 31 -4
14 -2 25 4 25 5 0 10 -9 10 -21 0 -11 5 -29 10 -40 8 -15 7 -19 -4 -19 -9 0
-13 -6 -10 -15 7 -16 -11 -37 -40 -48 -15 -6 -17 -4 -13 12 3 12 -3 27 -14 37
-10 9 -19 23 -19 31 0 7 -11 13 -24 13 -17 0 -25 7 -28 25 -6 29 3 31 36 10
23 -15 24 -15 29 12 7 36 -1 43 -19 19 -11 -16 -16 -17 -29 -6 -8 7 -15 19
-15 26 0 8 -3 14 -7 14 -5 0 -18 3 -30 6 -17 5 -23 2 -23 -11 0 -13 -6 -16
-24 -11 -15 4 -28 0 -35 -8 -18 -21 -1 -26 41 -11 40 13 58 5 58 -27 0 -18
-21 -23 -77 -20 -14 0 -23 -5 -23 -13 0 -11 -8 -13 -31 -8 -21 4 -34 1 -39 -8
-5 -7 -12 -10 -16 -7 -11 12 5 40 27 45 12 3 16 9 10 12 -20 13 4 59 44 87 48
33 84 41 144 34 39 -4 49 -10 72 -45z m-693 -62 c-5 -18 15 -54 27 -49 7 2 15
-4 19 -17 3 -12 8 -18 12 -14 4 4 17 1 29 -7 12 -8 32 -16 45 -18 33 -4 35
-20 4 -53 -20 -21 -34 -28 -61 -27 -27 1 -34 -2 -29 -14 6 -15 -3 -21 -39 -26
-16 -2 -20 4 -22 35 -3 28 0 37 12 37 8 0 15 8 15 18 0 9 -4 13 -8 7 -11 -15
-92 -14 -92 2 0 7 -4 13 -9 13 -13 0 -20 -25 -14 -49 3 -12 1 -21 -5 -21 -18
0 -28 28 -24 64 3 29 11 37 53 57 35 17 48 29 45 41 -3 15 7 22 37 27 4 0 6
-2 5 -6z m-828 -102 c0 -4 23 -11 50 -14 28 -3 63 -15 78 -25 15 -10 35 -22
45 -25 18 -7 22 -47 11 -105 -6 -28 -9 -30 -38 -27 -19 3 -42 16 -60 36 -31
35 -74 47 -83 23 -8 -22 -30 -16 -37 11 -4 14 -11 25 -16 25 -5 0 -7 -7 -4
-15 4 -8 1 -15 -5 -15 -6 0 -11 6 -11 14 0 17 -45 27 -59 13 -14 -14 -7 39 8
57 6 7 25 16 40 19 16 4 35 13 43 21 14 17 38 21 38 7z m10 -198 c0 -16 5 -35
11 -43 9 -13 10 -13 6 2 -8 24 1 28 31 12 35 -18 72 -18 99 1 19 13 21 13 27
-8 4 -14 0 -26 -11 -34 -9 -7 -29 -24 -45 -38 -34 -30 -71 -32 -101 -4 -12 11
-32 25 -44 30 -26 10 -30 37 -7 46 10 4 14 13 10 28 -3 12 -3 25 1 29 14 13
23 5 23 -21z m433 -60 c11 -14 34 -26 59 -29 29 -5 43 -13 51 -31 6 -13 17
-22 26 -21 11 2 19 -8 26 -31 8 -27 18 -37 50 -48 90 -30 135 -71 135 -122 0
-24 -10 -27 -28 -9 -7 7 -12 9 -12 5 0 -4 -17 2 -37 13 -21 11 -41 20 -45 20
-5 0 -17 8 -27 18 -11 9 -31 25 -45 35 -20 14 -25 23 -20 43 5 20 -1 32 -36
65 -24 23 -50 39 -60 37 -12 -2 -29 12 -49 39 -17 24 -31 45 -31 49 0 9 24 -9
43 -33z m-63 -424 c0 -20 -27 -44 -60 -54 -14 -4 -36 -14 -50 -23 -14 -10 -44
-24 -68 -34 -38 -14 -46 -15 -70 -2 -15 8 -34 14 -43 14 -21 0 -50 35 -83 98
-29 58 -25 80 15 77 21 -1 79 -49 79 -65 0 -5 17 -14 38 -20 45 -12 144 6 140
26 -2 6 11 26 27 42 l30 31 22 -37 c13 -20 23 -44 23 -53z m2458 -143 c3 -11
-4 -19 -18 -23 -13 -4 -19 -11 -16 -20 3 -8 6 -21 6 -29 0 -8 6 -14 14 -14 8
0 16 -10 18 -22 2 -13 13 -27 25 -33 12 -5 28 -23 35 -39 10 -25 9 -34 -8 -63
-23 -40 -36 -42 -40 -7 -2 14 -8 32 -15 40 -13 16 -49 19 -49 4 0 -5 -18 -15
-40 -21 -22 -7 -40 -16 -40 -20 0 -21 -29 6 -45 42 -18 40 -16 51 10 55 16 2
65 44 65 55 0 19 -32 15 -57 -7 -32 -28 -43 -30 -43 -9 0 8 4 15 10 15 5 0 24
13 42 29 50 44 122 91 133 87 6 -1 12 -10 13 -20z m-3573 -493 c17 -1 53 -7
80 -12 234 -45 252 -47 273 -38 16 7 38 7 70 -1 26 -7 97 -16 157 -22 61 -6
135 -17 165 -25 52 -13 46 -13 -105 -8 -88 3 -200 7 -250 8 -50 1 -114 9 -144
18 -30 9 -72 17 -92 17 -21 0 -40 4 -43 9 -4 5 -29 12 -56 16 -27 4 -52 11
-55 16 -3 4 -18 6 -33 3 -34 -6 -84 8 -90 25 -4 11 6 12 44 6 27 -5 63 -10 79
-12z m-80 -99 c165 -54 172 -55 258 -49 119 10 575 -39 569 -60 -1 -5 -14 -10
-29 -10 -14 0 -28 -6 -30 -12 -3 -7 -11 -13 -19 -13 -9 0 -13 4 -10 9 7 10
-92 27 -101 17 -15 -14 17 -27 78 -31 35 -2 80 -11 99 -19 l35 -15 -80 0 c-85
0 -159 7 -345 34 -63 9 -129 18 -146 20 -16 2 -48 11 -70 20 -47 21 -111 34
-224 44 -90 8 -140 25 -140 48 0 7 5 13 10 13 6 0 10 6 10 14 0 17 19 27 40
21 8 -2 51 -16 95 -31z m-1309 -236 c4 -24 8 -68 10 -98 1 -30 6 -73 10 -94
l7 -39 -39 6 c-22 4 -49 7 -61 7 -20 0 -23 5 -21 41 1 24 7 43 15 46 7 3 13
11 13 19 0 8 9 14 20 14 11 0 20 6 20 13 0 21 -10 26 -34 17 -18 -7 -22 -4
-24 16 -1 13 3 24 8 24 6 0 18 16 27 35 22 47 40 44 49 -7z m-110 -228 c17
-57 46 -79 106 -80 44 0 47 -2 58 -36 19 -55 2 -63 -62 -31 -61 31 -93 35 -84
11 3 -9 6 -21 6 -27 0 -13 73 -97 85 -97 3 0 13 -7 21 -15 8 -8 25 -21 36 -30
35 -24 13 -29 -53 -11 -33 10 -67 15 -75 12 -7 -3 -16 0 -20 6 -4 7 -3 8 4 4
8 -5 12 1 12 16 0 18 -6 23 -30 25 -29 2 -40 -10 -21 -21 5 -3 7 -15 4 -25 -3
-10 0 -22 6 -25 6 -4 11 -14 11 -23 0 -8 9 -27 21 -41 17 -22 18 -28 6 -30
-12 -3 -13 -11 -1 -69 8 -36 16 -69 19 -73 3 -4 -2 -13 -9 -19 -12 -10 -13 -8
-9 9 8 30 -26 88 -58 99 -15 5 -30 7 -33 4 -3 -4 -6 1 -6 10 0 9 -4 17 -10 17
-15 0 -23 -47 -17 -101 4 -35 3 -48 -6 -46 -16 3 -22 -92 -8 -106 6 -6 11 -21
11 -33 0 -13 5 -26 10 -29 15 -9 12 -47 -2 -43 -7 3 -19 31 -27 64 -7 32 -18
68 -23 80 -17 38 12 323 43 422 12 35 32 42 48 15 9 -16 10 -15 11 7 0 14 -6
36 -13 50 -8 15 -17 47 -20 74 -6 43 -5 47 12 41 27 -8 38 29 17 59 -16 25
-11 39 12 34 8 -2 21 -23 28 -48z m186 -425 c3 -14 1 -28 -3 -31 -15 -9 -10
-34 6 -34 8 0 15 -4 15 -9 0 -14 32 -23 44 -11 15 15 26 12 26 -5 0 -9 7 -18
15 -21 8 -4 15 -11 15 -16 0 -6 14 -26 31 -45 34 -39 34 -58 -2 -58 -15 0 -28
8 -34 22 -5 12 -19 24 -32 28 -30 7 -48 41 -32 61 9 12 6 14 -22 14 -24 0 -45
10 -71 34 -42 38 -48 56 -18 56 10 0 24 9 30 20 15 27 27 25 32 -5z m-192
-180 c-6 -8 -9 -19 -5 -25 10 -16 34 -12 47 9 11 18 12 18 25 -6 7 -14 13 -32
13 -39 0 -18 9 -18 32 3 17 15 18 15 18 -3 0 -16 2 -17 10 -4 16 25 11 39 -15
46 -19 5 -24 11 -20 25 4 11 2 19 -4 19 -6 0 -11 7 -11 17 0 14 2 14 20 -2 11
-10 37 -19 57 -20 51 -3 53 -3 53 -16 0 -6 -8 -8 -19 -4 -11 3 -23 0 -27 -7
-4 -6 -2 -14 4 -16 7 -2 12 -11 12 -20 0 -15 -2 -15 -10 -2 -8 12 -10 11 -10
-7 0 -12 12 -39 26 -60 21 -31 32 -38 60 -39 23 -1 33 3 31 10 -3 7 1 23 8 36
l13 25 9 -35 c8 -30 14 -35 41 -38 51 -5 37 -17 -35 -32 -90 -17 -113 -26
-113 -45 0 -9 4 -14 9 -11 5 3 14 0 20 -7 8 -11 4 -13 -21 -9 -25 4 -30 2 -25
-11 5 -13 2 -13 -24 1 l-30 17 38 32 c45 39 41 41 -18 9 -52 -27 -144 -32
-144 -6 0 10 47 45 62 45 1 0 4 12 8 28 l7 27 -73 -2 -74 -3 -1 48 c0 26 3 47
8 47 5 0 13 12 19 27 6 15 16 34 22 42 10 12 13 11 15 -8 2 -12 -2 -28 -8 -36z
m4617 -325 c6 0 13 5 15 12 4 12 88 24 88 12 0 -4 -8 -16 -17 -27 -17 -18 -17
-19 1 -33 11 -7 17 -17 13 -20 -4 -4 -2 -13 3 -19 7 -9 6 -16 -4 -25 -20 -16
-73 -4 -86 20 -5 10 -30 28 -55 40 -50 24 -56 40 -22 56 16 7 26 7 38 -3 8 -7
20 -13 26 -13z m-3063 -10 c15 -5 53 -14 86 -19 33 -6 73 -19 89 -30 16 -12
36 -21 45 -21 9 0 16 -3 16 -8 0 -4 17 -16 38 -27 20 -11 39 -23 42 -26 3 -4
14 -9 25 -12 11 -4 2 -4 -20 -1 -72 10 -179 47 -203 71 -12 12 -33 23 -44 23
-42 0 -135 32 -135 46 0 16 25 18 61 4z m-262 -270 c28 -26 30 -32 18 -44 -11
-10 -30 -12 -73 -7 -32 4 -60 4 -62 1 -2 -4 9 -14 26 -24 16 -9 29 -21 29 -27
0 -5 6 -9 14 -9 8 0 16 -5 18 -11 2 -6 25 -11 51 -11 26 0 49 -4 53 -9 3 -5 0
-9 -7 -9 -8 0 -8 -4 1 -15 10 -12 10 -15 -1 -15 -10 0 -10 -3 -1 -12 7 -7 12
-16 12 -21 0 -11 -61 26 -130 80 -61 48 -75 52 -67 23 3 -11 0 -20 -5 -20 -7
0 -7 -4 -1 -12 15 -20 22 -57 12 -64 -5 -3 -9 2 -9 11 0 28 -54 145 -67 145
-7 0 -13 5 -13 10 0 6 16 10 35 8 38 -2 36 -3 53 35 17 39 69 38 114 -3z m708
-116 c6 -14 7 -31 3 -37 -4 -7 -9 -4 -13 7 -5 15 -10 14 -42 -12 -26 -21 -34
-32 -28 -43 7 -10 4 -16 -8 -21 -14 -5 -13 -7 5 -7 12 -1 30 10 41 24 11 14
28 25 37 25 9 0 19 8 21 18 8 27 77 23 106 -5 12 -13 17 -23 11 -23 -7 0 -15
5 -18 10 -9 14 -26 13 -22 -2 1 -6 -14 -15 -33 -18 -19 -3 -46 -13 -60 -22
-30 -19 -106 -42 -136 -40 -12 1 -27 -5 -34 -13 -18 -21 -33 -18 -27 5 7 27
-13 78 -33 84 -9 2 -6 4 8 5 12 0 22 -3 22 -9 0 -5 5 -10 11 -10 5 0 7 5 4 10
-3 6 5 10 18 10 24 0 87 58 87 80 0 6 16 10 35 10 29 0 37 -5 45 -26z"/>
<path d="M290 4130 c-14 -4 -44 -5 -66 -3 -55 7 -113 -13 -126 -43 -9 -20 -19
-24 -54 -24 l-42 0 -1 -64 -1 -65 36 6 c23 4 39 2 43 -6 5 -8 52 -14 137 -18
112 -5 132 -4 146 11 9 9 28 16 42 16 50 0 41 95 -11 119 -13 6 -28 23 -34 38
-9 25 -27 44 -39 42 -3 -1 -16 -4 -30 -9z"/>
<path d="M5186 601 c-3 -4 -25 -11 -48 -15 -61 -10 -71 -21 -52 -57 12 -23 12
-29 1 -29 -7 0 -17 4 -22 9 -6 5 -19 11 -30 14 -18 4 -18 5 3 6 12 0 22 6 22
11 0 6 -16 8 -42 4 -51 -8 -67 -19 -50 -36 20 -20 14 -28 -23 -28 -24 0 -35
-5 -35 -15 0 -8 5 -15 12 -15 6 0 3 -9 -7 -20 -26 -29 -15 -33 41 -14 71 24
79 29 79 50 0 16 8 19 46 20 26 1 59 8 75 17 16 9 56 28 88 42 l60 27 -25 18
c-17 14 -26 15 -31 7 -6 -9 -12 -9 -28 1 -23 14 -27 15 -34 3z"/>
</g>
</svg>
